# xmcd
#
# Track frame offsets: 
#        150
#        17536
#        31680
#        41625
#        55166
#        75047
#        86890
#        101250
#        112380
#        133440
#        145634
#
# Disc length: 2150 seconds
#
# Revision: 0
# Processed by: cddbd v1.5PL3 Copyright (c) Steve Scherf et al.
# Submitted via: ExactAudioCopy v0.95a3
#
DISCID=8608640b
DTITLE=Railbenders - Segundo
DYEAR=2003
DGENRE=Country
TTITLE0=Whiskey Rain
TTITLE1=Country Song
TTITLE2=Midnight Train
TTITLE3=Another Tomorrow
TTITLE4=Someone Take This Bottle
TTITLE5=Tombstone Serenade
TTITLE6=O.D.'d In Denver
TTITLE7=One Foot In The Grave
TTITLE8=Payphone
TTITLE9=Sweet Caroline
TTITLE10=The Hangover Song
EXTD=
EXTT0=
EXTT1=
EXTT2=
EXTT3=
EXTT4=
EXTT5=
EXTT6=
EXTT7=
EXTT8=
EXTT9=
EXTT10=
PLAYORDER=
